<svg xmlns="http://www.w3.org/2000/svg" xmlns:xlink="http://www.w3.org/1999/xlink" width="100" zoomAndPan="magnify" viewBox="0 0 75 74.999997" height="100" preserveAspectRatio="xMidYMid meet" version="1.0"><defs><clipPath id="4a5ab45f4d"><path d="M 0.601562 0.601562 L 74.398438 0.601562 L 74.398438 74.398438 L 0.601562 74.398438 Z M 0.601562 0.601562 " clip-rule="nonzero"/></clipPath><clipPath id="aeee7c22f5"><path d="M 37.5 0.601562 C 17.121094 0.601562 0.601562 17.121094 0.601562 37.5 C 0.601562 57.878906 17.121094 74.398438 37.5 74.398438 C 57.878906 74.398438 74.398438 57.878906 74.398438 37.5 C 74.398438 17.121094 57.878906 0.601562 37.5 0.601562 Z M 37.5 0.601562 " clip-rule="nonzero"/></clipPath><clipPath id="20c590a502"><path d="M 19.382812 12.683594 L 64.617188 12.683594 L 64.617188 63.980469 L 19.382812 63.980469 Z M 19.382812 12.683594 " clip-rule="nonzero"/></clipPath><clipPath id="245c6fab22"><path d="M 10.34375 52 L 20 52 L 20 62 L 10.34375 62 Z M 10.34375 52 " clip-rule="nonzero"/></clipPath><clipPath id="a19e286e86"><path d="M 33.355469 54.265625 L 64.5 54.265625 L 64.5 60.984375 L 33.355469 60.984375 Z M 33.355469 54.265625 " clip-rule="nonzero"/></clipPath><clipPath id="a4e66c6772"><path d="M 10.34375 16 L 15 16 L 15 21 L 10.34375 21 Z M 10.34375 16 " clip-rule="nonzero"/></clipPath><clipPath id="d574831d2e"><path d="M 27 14 L 30.496094 14 L 30.496094 20 L 27 20 Z M 27 14 " clip-rule="nonzero"/></clipPath><clipPath id="5fde9ab4de"><path d="M 20 21 L 22 21 L 22 23.8125 L 20 23.8125 Z M 20 21 " clip-rule="nonzero"/></clipPath><clipPath id="32a939aa3e"><path d="M 14 21 L 17 21 L 17 23.8125 L 14 23.8125 Z M 14 21 " clip-rule="nonzero"/></clipPath></defs><g clip-path="url(#4a5ab45f4d)"><g clip-path="url(#aeee7c22f5)"><path fill="#d90d1e" d="M 0.601562 0.601562 L 74.398438 0.601562 L 74.398438 74.398438 L 0.601562 74.398438 Z M 0.601562 0.601562 " fill-opacity="1" fill-rule="nonzero"/></g></g><g clip-path="url(#20c590a502)"><path fill="#ffffff" d="M 34.40625 13.976562 C 34.433594 13.980469 34.421875 14 34.40625 14 C 34.414062 14.136719 34.476562 13.988281 34.5 13.953125 C 34.535156 13.910156 34.589844 13.839844 34.617188 13.792969 C 34.65625 13.726562 34.777344 13.480469 34.847656 13.464844 C 34.878906 13.460938 34.941406 13.457031 34.917969 13.535156 C 34.976562 13.457031 35.011719 13.386719 35.082031 13.328125 C 35.128906 13.289062 35.203125 13.277344 35.265625 13.234375 C 35.332031 13.191406 35.394531 13.082031 35.476562 13.070312 C 35.492188 13.070312 35.53125 13.113281 35.570312 13.09375 C 35.660156 13.046875 35.722656 12.929688 35.824219 12.886719 C 35.875 12.863281 35.960938 12.882812 36.035156 12.863281 C 36.085938 12.847656 36.128906 12.796875 36.171875 12.792969 C 36.21875 12.785156 36.285156 12.816406 36.335938 12.816406 C 36.453125 12.8125 36.542969 12.757812 36.683594 12.769531 C 36.753906 12.773438 36.820312 12.820312 36.871094 12.816406 C 36.996094 12.804688 37.140625 12.71875 37.265625 12.699219 C 37.429688 12.675781 37.648438 12.675781 37.730469 12.746094 C 37.816406 12.820312 38.085938 12.648438 38.195312 12.699219 C 38.28125 12.742188 38.171875 12.726562 38.21875 12.769531 C 38.535156 12.792969 38.796875 12.875 39.007812 13 C 38.949219 13.050781 38.847656 12.949219 38.730469 12.976562 C 38.765625 13.101562 39.042969 13.078125 39.125 13.117188 C 39.253906 13.179688 39.324219 13.3125 39.449219 13.421875 C 39.488281 13.453125 39.539062 13.484375 39.566406 13.511719 C 39.632812 13.585938 39.683594 13.707031 39.753906 13.792969 C 39.828125 13.882812 39.921875 13.933594 39.960938 14.023438 C 39.988281 14.085938 39.984375 14.179688 40.007812 14.257812 C 40.0625 14.4375 40.195312 14.625 40.261719 14.835938 C 40.296875 14.941406 40.320312 15.0625 40.355469 15.164062 C 40.398438 15.277344 40.460938 15.375 40.472656 15.464844 C 40.480469 15.523438 40.449219 15.570312 40.449219 15.652344 C 40.449219 15.730469 40.492188 15.832031 40.496094 15.929688 C 40.5 16.011719 40.46875 16.09375 40.472656 16.164062 C 40.480469 16.3125 40.597656 16.484375 40.449219 16.535156 C 40.40625 16.546875 40.402344 16.527344 40.378906 16.558594 C 40.320312 16.636719 40.367188 16.84375 40.355469 16.976562 C 40.347656 17.070312 40.292969 17.199219 40.285156 17.324219 C 40.277344 17.492188 40.390625 17.675781 40.21875 17.695312 C 40.199219 17.699219 40.179688 17.664062 40.148438 17.695312 C 40.144531 17.699219 40.058594 17.945312 40.054688 18.019531 C 40.050781 18.066406 40.085938 18.101562 40.078125 18.136719 C 40.0625 18.203125 40.011719 18.246094 40.007812 18.300781 C 39.957031 18.75 39.988281 18.941406 40.101562 19.300781 C 40.203125 19.621094 40.285156 19.789062 40.449219 20.089844 C 40.550781 20.273438 40.597656 20.5 40.867188 20.4375 C 40.917969 20.621094 41.089844 20.730469 41.285156 20.714844 C 41.402344 20.707031 41.496094 20.597656 41.632812 20.507812 C 41.761719 20.425781 41.90625 20.367188 42.003906 20.320312 C 42.238281 20.214844 42.539062 20.070312 42.796875 20.019531 C 43.183594 19.945312 43.636719 19.953125 44.050781 19.972656 C 44.539062 19.996094 45.035156 20.0625 45.539062 20.136719 C 46.035156 20.207031 46.527344 20.25 47.027344 20.273438 C 47.308594 20.289062 47.601562 20.339844 47.886719 20.34375 C 48.085938 20.347656 48.25 20.3125 48.441406 20.390625 C 48.554688 20.4375 48.609375 20.566406 48.746094 20.601562 C 48.917969 20.640625 49.230469 20.566406 49.488281 20.53125 C 49.972656 20.460938 50.308594 20.316406 50.8125 20.230469 C 51.058594 20.1875 51.304688 20.128906 51.511719 20.113281 C 51.855469 20.085938 52.21875 20.140625 52.578125 20.160156 C 53.804688 20.214844 55.117188 20.214844 56.34375 20.160156 C 56.585938 20.148438 56.816406 20.167969 57.039062 20.160156 C 57.503906 20.136719 58.066406 20.023438 58.621094 20.066406 C 58.921875 20.089844 59.207031 20.179688 59.503906 20.230469 C 59.804688 20.277344 60.128906 20.308594 60.457031 20.320312 C 60.652344 20.332031 60.875 20.296875 61.082031 20.320312 C 61.328125 20.351562 61.578125 20.53125 61.875 20.648438 C 62.140625 20.753906 62.40625 20.851562 62.640625 20.972656 C 62.882812 21.09375 63.09375 21.273438 63.316406 21.414062 C 63.429688 21.488281 63.535156 21.574219 63.640625 21.644531 C 63.820312 21.769531 63.9375 21.835938 64.082031 21.996094 C 64.121094 22.039062 64.160156 22.097656 64.199219 22.132812 C 64.328125 22.25 64.609375 22.34375 64.617188 22.507812 C 64.621094 22.691406 64.417969 22.738281 64.199219 22.785156 C 64.136719 22.796875 64.074219 22.832031 64.035156 22.832031 C 63.949219 22.832031 63.847656 22.761719 63.78125 22.785156 C 63.703125 22.8125 63.742188 22.886719 63.6875 22.949219 C 63.695312 22.941406 63.539062 23.035156 63.523438 23.039062 C 63.179688 23.125 62.859375 22.773438 62.734375 22.597656 C 62.65625 22.488281 62.359375 22.394531 62.199219 22.320312 C 62.121094 22.285156 62.042969 22.246094 61.96875 22.203125 C 61.894531 22.160156 61.824219 22.09375 61.757812 22.066406 C 61.691406 22.035156 61.609375 22.042969 61.550781 22.019531 C 61.457031 21.980469 61.359375 21.917969 61.246094 21.855469 C 61.117188 21.785156 61.082031 21.734375 60.828125 21.738281 C 60.75 21.738281 60.648438 21.777344 60.550781 21.785156 C 60.273438 21.808594 60.019531 21.769531 59.992188 21.855469 C 59.960938 21.949219 60.300781 22.027344 60.410156 22.066406 C 60.722656 22.171875 61.542969 22.398438 61.386719 22.902344 C 61.324219 23.105469 61.148438 23.21875 60.804688 23.179688 C 60.503906 23.144531 60.203125 22.96875 59.898438 22.808594 C 59.683594 22.695312 59.453125 22.640625 59.15625 22.574219 C 59.082031 22.558594 58.992188 22.515625 58.921875 22.507812 C 58.707031 22.472656 58.539062 22.503906 58.390625 22.414062 C 58.214844 22.308594 58.0625 22.089844 57.921875 21.902344 C 57.875 21.832031 57.804688 21.722656 57.785156 21.714844 C 57.660156 21.660156 57.195312 21.886719 57.039062 21.949219 C 56.328125 22.234375 55.558594 22.554688 54.878906 22.808594 C 53.90625 23.175781 52.808594 23.5625 51.648438 23.621094 C 50.792969 23.664062 50.207031 23.53125 49.347656 23.550781 C 49.207031 23.554688 49.023438 23.542969 48.953125 23.574219 C 48.824219 23.632812 48.761719 23.878906 48.628906 23.96875 C 48.453125 24.09375 47.972656 24.132812 47.675781 24.179688 C 47.28125 24.238281 46.949219 24.253906 46.492188 24.273438 C 46.121094 24.289062 45.761719 24.273438 45.445312 24.296875 C 45.253906 24.308594 45 24.34375 44.863281 24.433594 C 44.644531 24.585938 44.507812 25.148438 44.351562 25.503906 C 44.109375 26.058594 43.839844 26.539062 43.539062 27.0625 C 43.492188 27.140625 43.425781 27.207031 43.378906 27.292969 C 43.332031 27.375 43.308594 27.484375 43.261719 27.570312 C 43.132812 27.8125 42.960938 28.0625 42.796875 28.292969 C 42.734375 28.378906 42.644531 28.476562 42.609375 28.570312 C 42.523438 28.800781 42.503906 29.101562 42.449219 29.40625 C 42.328125 30.074219 42.160156 30.8125 41.984375 31.429688 C 41.960938 31.503906 41.960938 31.570312 41.9375 31.636719 C 41.914062 31.699219 41.875 31.75 41.867188 31.800781 C 41.8125 32.140625 41.917969 32.453125 41.9375 32.683594 C 41.972656 33.195312 41.886719 33.605469 41.726562 33.984375 C 41.6875 34.082031 41.628906 34.167969 41.585938 34.265625 C 41.546875 34.363281 41.535156 34.472656 41.496094 34.566406 C 41.464844 34.628906 41.394531 34.738281 41.332031 34.820312 C 41.277344 34.894531 41.207031 34.964844 41.148438 35.03125 C 41.011719 35.175781 40.890625 35.335938 40.75 35.449219 C 40.6875 35.503906 40.484375 35.570312 40.472656 35.636719 C 40.457031 35.714844 40.660156 35.871094 40.679688 35.9375 C 40.726562 36.074219 40.691406 36.28125 40.703125 36.449219 C 40.722656 36.675781 40.765625 36.945312 40.75 37.238281 C 40.703125 38.367188 40.476562 39.222656 40.101562 40.050781 C 40.050781 40.164062 39.980469 40.304688 39.914062 40.445312 C 39.847656 40.589844 39.726562 40.753906 39.730469 40.816406 C 39.730469 40.90625 39.824219 40.960938 39.867188 41.050781 C 39.972656 41.257812 40.03125 41.480469 40.148438 41.746094 C 40.214844 41.902344 40.414062 41.574219 40.472656 41.515625 C 40.660156 41.316406 40.878906 41.160156 41.101562 41.003906 C 41.429688 40.773438 41.808594 40.609375 42.191406 40.398438 C 42.433594 40.265625 42.648438 40.101562 42.867188 39.957031 C 43.324219 39.652344 43.761719 39.386719 44.191406 39.027344 C 44.46875 38.792969 44.804688 38.53125 45.121094 38.261719 C 45.234375 38.164062 45.378906 38.042969 45.398438 37.980469 C 45.417969 37.929688 45.367188 37.824219 45.375 37.773438 C 45.386719 37.703125 45.480469 37.601562 45.515625 37.539062 C 45.566406 37.453125 45.625 37.375 45.65625 37.308594 C 45.675781 37.253906 45.660156 37.179688 45.679688 37.121094 C 45.707031 37.027344 45.820312 36.835938 45.886719 36.726562 C 46.058594 36.441406 46.261719 36.269531 46.515625 36.054688 C 46.589844 35.988281 46.695312 35.941406 46.699219 35.796875 C 46.785156 35.804688 46.792969 35.886719 46.863281 35.890625 C 47.011719 35.898438 47.015625 35.679688 47.164062 35.796875 C 47.21875 35.839844 47.273438 35.925781 47.1875 36.054688 C 47.300781 36.121094 47.359375 35.921875 47.488281 35.984375 C 47.535156 36.003906 47.628906 36.066406 47.558594 36.191406 C 47.628906 36.226562 47.660156 36.203125 47.699219 36.214844 C 47.707031 36.21875 47.785156 36.242188 47.816406 36.285156 C 47.871094 36.371094 47.773438 36.398438 47.792969 36.472656 C 47.804688 36.511719 47.886719 36.582031 47.910156 36.589844 C 48.082031 36.628906 48.058594 36.433594 48.210938 36.496094 C 48.226562 36.5 48.300781 36.539062 48.304688 36.542969 C 48.367188 36.632812 48.253906 36.710938 48.28125 36.796875 C 48.304688 36.878906 48.558594 37 48.652344 37.050781 C 48.714844 37.089844 48.796875 37.132812 48.859375 37.167969 C 48.933594 37.207031 49.011719 37.28125 49.046875 37.285156 C 49.179688 37.296875 49.234375 37.152344 49.324219 37.214844 C 49.425781 37.285156 49.304688 37.316406 49.347656 37.425781 C 49.363281 37.457031 49.609375 37.648438 49.675781 37.65625 C 49.742188 37.664062 49.835938 37.597656 49.90625 37.609375 C 49.9375 37.648438 49.96875 37.6875 49.953125 37.773438 C 50.03125 37.742188 50.238281 37.628906 50.230469 37.820312 C 50.226562 37.945312 50.203125 37.96875 50.324219 38.050781 C 50.441406 38.128906 50.460938 38.105469 50.582031 38.074219 C 50.65625 38.054688 50.734375 38.054688 50.71875 38.167969 C 50.699219 38.328125 50.710938 38.300781 50.859375 38.402344 C 50.917969 38.441406 50.972656 38.511719 51 38.515625 C 51.097656 38.535156 51.15625 38.433594 51.230469 38.492188 C 51.3125 38.558594 51.191406 38.574219 51.230469 38.703125 C 51.28125 38.863281 51.441406 38.839844 51.554688 38.910156 C 51.453125 39.210938 51.601562 39.140625 51.554688 39.261719 C 51.53125 39.335938 51.503906 39.304688 51.441406 39.355469 C 51.359375 39.417969 51.257812 39.601562 51.136719 39.632812 C 50.90625 39.691406 50.414062 39.511719 50.164062 39.445312 C 50.117188 39.433594 50.082031 39.40625 50.046875 39.398438 C 50.003906 39.390625 49.949219 39.425781 49.90625 39.421875 C 49.867188 39.417969 49.792969 39.386719 49.746094 39.375 C 49.6875 39.363281 49.632812 39.34375 49.582031 39.332031 C 49.527344 39.316406 49.453125 39.320312 49.394531 39.308594 C 49.351562 39.296875 49.316406 39.246094 49.277344 39.238281 C 49.234375 39.226562 49.171875 39.25 49.117188 39.238281 C 49.078125 39.230469 49.054688 39.195312 49.023438 39.191406 C 48.964844 39.183594 48.808594 39.183594 48.722656 39.191406 C 48.679688 39.195312 48.652344 39.230469 48.605469 39.238281 C 48.558594 39.246094 48.492188 39.207031 48.464844 39.214844 C 48.402344 39.226562 48.367188 39.289062 48.304688 39.308594 C 48.261719 39.316406 48.210938 39.28125 48.164062 39.285156 C 48.074219 39.289062 48 39.371094 47.953125 39.375 C 47.894531 39.382812 47.828125 39.339844 47.769531 39.355469 C 47.601562 39.390625 47.464844 39.589844 47.234375 39.492188 C 47.199219 39.476562 47.164062 39.421875 47.140625 39.421875 C 47.050781 39.421875 46.753906 39.628906 46.652344 39.703125 C 46.496094 39.816406 46.367188 39.917969 46.234375 40.027344 C 45.898438 40.308594 45.636719 40.503906 45.398438 40.699219 C 44.6875 41.292969 44.199219 41.875 43.65625 42.535156 C 43.3125 42.953125 42.917969 43.445312 42.585938 43.886719 C 42.53125 43.957031 42.453125 44.019531 42.402344 44.09375 C 42.347656 44.167969 42.316406 44.257812 42.261719 44.328125 C 42.152344 44.464844 42.015625 44.570312 41.914062 44.722656 C 41.738281 44.980469 41.667969 45.3125 41.539062 45.652344 C 41.484375 45.804688 41.414062 45.890625 41.285156 46.046875 C 41.203125 46.140625 41.121094 46.246094 41.054688 46.253906 C 40.9375 46.269531 40.863281 46.152344 40.796875 46.164062 C 40.6875 46.179688 40.625 46.371094 40.542969 46.464844 C 40.425781 46.597656 40.164062 46.839844 39.984375 46.929688 C 39.660156 47.089844 39.019531 47.007812 38.636719 46.90625 C 37.976562 46.726562 37.703125 46.351562 37.289062 45.90625 C 37.21875 45.832031 37.101562 45.667969 37.03125 45.652344 C 36.949219 45.628906 36.820312 45.6875 36.730469 45.695312 C 36.671875 45.703125 36.550781 45.671875 36.5 45.695312 C 36.457031 45.714844 36.433594 45.777344 36.382812 45.859375 C 36.222656 46.117188 36.03125 46.457031 35.894531 46.742188 C 35.832031 46.871094 35.769531 46.996094 35.730469 47.113281 C 35.6875 47.25 35.6875 47.535156 35.59375 47.578125 C 35.542969 47.605469 35.285156 47.542969 35.175781 47.507812 C 35.050781 47.472656 34.9375 47.40625 34.847656 47.371094 C 34.761719 47.335938 34.648438 47.289062 34.523438 47.230469 C 34.40625 47.175781 34.25 47.082031 34.199219 47.089844 C 34.152344 47.097656 34.015625 47.28125 33.894531 47.441406 C 33.613281 47.820312 33.332031 48.195312 33.082031 48.578125 C 32.917969 48.828125 32.742188 49.085938 32.640625 49.4375 C 32.601562 49.578125 32.5625 49.78125 32.523438 49.972656 C 32.488281 50.164062 32.417969 50.414062 32.433594 50.53125 C 32.449219 50.660156 32.527344 50.652344 32.546875 50.761719 C 32.558594 50.824219 32.542969 51.070312 32.523438 51.179688 C 32.492188 51.375 32.40625 51.601562 32.363281 51.832031 C 32.273438 52.316406 32.210938 52.734375 32.035156 53.132812 C 31.792969 53.695312 31.511719 54.21875 31.152344 54.691406 C 30.929688 54.984375 30.679688 55.25 30.410156 55.550781 C 29.851562 56.171875 29.398438 56.730469 28.945312 57.316406 C 28.613281 57.746094 28.316406 58.292969 27.992188 58.804688 C 27.894531 58.960938 27.707031 59.171875 27.691406 59.292969 C 27.679688 59.371094 27.734375 59.460938 27.738281 59.546875 C 27.742188 59.664062 27.695312 59.785156 27.691406 59.894531 C 27.679688 60.265625 27.753906 60.59375 27.714844 60.917969 C 27.679688 61.195312 27.5625 61.488281 27.460938 61.730469 C 27.445312 61.761719 27.414062 61.8125 27.414062 61.824219 C 27.402344 61.886719 27.460938 62.019531 27.4375 62.078125 C 27.394531 62.171875 27.238281 62.167969 27.15625 62.242188 C 27.046875 62.339844 27.082031 62.445312 26.996094 62.476562 C 26.886719 62.511719 26.847656 62.40625 26.738281 62.40625 C 26.679688 62.402344 26.433594 62.496094 26.34375 62.519531 C 26.285156 62.535156 26.210938 62.539062 26.203125 62.542969 C 26.0625 62.628906 26.132812 62.820312 25.878906 62.730469 C 25.738281 62.679688 25.675781 62.71875 25.460938 62.800781 C 24.953125 62.992188 24.515625 63.253906 24.042969 63.472656 C 23.949219 63.519531 23.859375 63.578125 23.765625 63.613281 C 23.65625 63.65625 23.539062 63.65625 23.460938 63.707031 C 23.421875 63.734375 23.410156 63.738281 23.371094 63.800781 C 23.339844 63.839844 23.324219 63.886719 23.300781 63.890625 C 23.21875 63.917969 23.113281 63.828125 23.019531 63.824219 C 22.953125 63.816406 22.859375 63.855469 22.765625 63.871094 C 22.664062 63.882812 22.558594 63.875 22.488281 63.890625 C 22.378906 63.921875 22.3125 64.003906 22.253906 64.007812 C 22.179688 64.015625 22.140625 63.957031 22.046875 63.9375 C 21.960938 63.921875 21.804688 63.949219 21.671875 63.9375 C 21.539062 63.929688 21.417969 63.882812 21.347656 63.890625 C 21.242188 63.902344 21.171875 64 21.09375 63.984375 C 21.011719 63.96875 21.03125 63.875 20.953125 63.824219 C 20.910156 63.792969 20.792969 63.78125 20.695312 63.753906 C 20.609375 63.726562 20.5 63.679688 20.464844 63.683594 C 20.375 63.6875 20.328125 63.777344 20.253906 63.753906 C 20.140625 63.714844 20.230469 63.640625 20.164062 63.566406 C 20.136719 63.539062 20 63.503906 19.929688 63.472656 C 19.757812 63.394531 19.445312 63.289062 19.441406 63.007812 C 19.441406 62.785156 19.503906 62.914062 19.558594 62.753906 C 19.582031 62.679688 19.558594 62.570312 19.582031 62.5 C 19.589844 62.472656 19.632812 62.445312 19.652344 62.40625 C 19.691406 62.3125 19.726562 62.183594 19.789062 62.125 C 19.867188 62.058594 20.027344 62.019531 20.164062 61.964844 C 20.519531 61.816406 20.929688 61.679688 21.253906 61.476562 C 21.566406 61.28125 21.925781 61.097656 22.277344 60.917969 C 22.429688 60.839844 22.625 60.800781 22.742188 60.683594 C 22.78125 60.648438 22.769531 60.59375 22.8125 60.570312 C 22.855469 60.542969 22.910156 60.585938 22.953125 60.570312 C 22.96875 60.5625 23.074219 60.472656 23.089844 60.429688 C 23.105469 60.394531 23.078125 60.351562 23.113281 60.3125 C 23.148438 60.277344 23.210938 60.289062 23.253906 60.265625 C 23.308594 60.234375 23.386719 60.183594 23.414062 60.105469 C 23.433594 60.058594 23.402344 60.007812 23.4375 59.964844 C 23.476562 59.925781 23.515625 59.957031 23.578125 59.917969 C 23.648438 59.875 23.664062 59.828125 23.71875 59.757812 C 23.722656 59.75 23.761719 59.738281 23.765625 59.734375 C 23.78125 59.6875 23.753906 59.636719 23.789062 59.59375 C 23.804688 59.570312 23.898438 59.539062 23.949219 59.5 C 23.96875 59.488281 23.976562 59.441406 23.996094 59.429688 C 24.03125 59.410156 24.0625 59.429688 24.089844 59.40625 C 24.242188 59.28125 24.21875 59.207031 24.414062 59.175781 C 24.53125 59.15625 24.574219 59.125 24.71875 58.988281 C 24.75 58.960938 24.769531 58.90625 24.808594 58.871094 C 24.898438 58.796875 25.015625 58.699219 25.113281 58.59375 C 25.144531 58.558594 25.171875 58.519531 25.203125 58.476562 C 25.691406 57.898438 26.101562 57.105469 26.53125 56.457031 C 26.949219 55.820312 27.300781 55.125 27.621094 54.386719 C 27.785156 54.015625 27.929688 53.640625 28.109375 53.296875 C 28.296875 52.941406 28.484375 52.605469 28.621094 52.226562 C 28.695312 52.027344 28.753906 51.835938 28.832031 51.644531 C 28.941406 51.378906 29.046875 51.1875 29.15625 50.878906 C 29.183594 50.800781 29.238281 50.71875 29.25 50.671875 C 29.300781 50.417969 29.257812 50.121094 29.296875 49.855469 C 29.296875 49.855469 29.382812 49.460938 29.410156 49.4375 C 29.449219 49.40625 29.625 49.433594 29.644531 49.414062 C 29.675781 49.382812 29.722656 49.011719 29.761719 48.8125 C 29.84375 48.335938 29.910156 48.046875 30.039062 47.648438 C 30.097656 47.46875 30.132812 47.277344 30.203125 47.113281 C 30.230469 47.042969 30.324219 46.945312 30.339844 46.859375 C 30.359375 46.765625 30.335938 46.632812 30.339844 46.511719 C 30.363281 46.070312 30.480469 45.652344 30.621094 45.257812 C 30.671875 45.105469 30.761719 44.96875 30.757812 44.90625 C 30.753906 44.816406 30.703125 44.84375 30.644531 44.746094 C 30.609375 44.6875 30.601562 44.601562 30.574219 44.558594 C 30.492188 44.4375 30.34375 44.363281 30.339844 44.234375 C 30.335938 44.0625 30.566406 43.941406 30.667969 43.816406 C 30.71875 43.75 30.777344 43.644531 30.828125 43.558594 C 31.1875 42.996094 31.523438 42.347656 31.875 41.722656 C 31.976562 41.542969 32.101562 41.378906 32.199219 41.210938 C 32.40625 40.863281 32.550781 40.554688 32.78125 40.167969 C 32.886719 39.984375 33.070312 39.769531 33.082031 39.65625 C 33.09375 39.558594 33.003906 39.34375 32.945312 39.167969 C 32.710938 38.46875 32.597656 37.609375 32.640625 36.613281 C 32.660156 36.21875 32.738281 35.800781 32.828125 35.378906 C 32.863281 35.214844 32.929688 35.015625 32.992188 34.820312 C 33.050781 34.628906 33.0625 34.398438 33.152344 34.289062 C 33.210938 34.214844 33.289062 34.21875 33.339844 34.171875 C 33.386719 34.125 33.449219 34.039062 33.453125 33.984375 C 33.46875 33.835938 33.292969 33.664062 33.246094 33.472656 C 33.226562 33.390625 33.203125 33.246094 33.222656 33.148438 C 33.261719 32.960938 33.515625 32.820312 33.617188 32.660156 C 33.765625 32.433594 33.84375 32.023438 33.941406 31.59375 C 34.070312 31.027344 34.078125 30.441406 34.128906 29.800781 C 34.136719 29.679688 34.136719 29.472656 34.128906 29.316406 C 34.113281 28.933594 34.019531 28.292969 33.917969 27.898438 C 33.894531 27.792969 33.800781 27.476562 33.804688 27.480469 C 33.738281 27.441406 33.617188 27.566406 33.546875 27.617188 C 33.386719 27.738281 33.453125 27.679688 33.339844 27.78125 C 33.167969 27.933594 33.066406 28.042969 32.921875 28.128906 C 32.5625 28.339844 32.171875 28.449219 31.851562 28.570312 C 31.5 28.703125 31.101562 28.84375 30.667969 28.917969 C 30.230469 28.996094 29.742188 29.039062 29.296875 29.058594 C 28.863281 29.078125 28.386719 29.035156 27.992188 29.058594 C 27.855469 29.066406 27.570312 29.078125 27.484375 29.128906 C 27.394531 29.175781 27.351562 29.390625 27.25 29.523438 C 27.195312 29.59375 27.0625 29.707031 26.949219 29.757812 C 26.828125 29.808594 26.679688 29.800781 26.554688 29.847656 C 26.488281 29.875 26.433594 29.933594 26.367188 29.964844 C 26.289062 30 26.214844 30 26.15625 30.035156 C 25.921875 30.179688 25.902344 30.300781 25.808594 30.546875 C 25.785156 30.605469 25.738281 30.671875 25.71875 30.730469 C 25.675781 30.855469 25.636719 31.277344 25.4375 31.195312 C 25.226562 31.109375 25.464844 30.503906 25.53125 30.289062 C 25.558594 30.195312 25.628906 30.03125 25.625 30.011719 C 25.566406 29.851562 25.328125 29.953125 25.226562 30.058594 C 25.171875 30.121094 25.109375 30.265625 25.042969 30.382812 C 24.972656 30.503906 24.894531 30.59375 24.855469 30.6875 C 24.804688 30.8125 24.742188 31.34375 24.484375 31.21875 C 24.222656 31.09375 24.585938 30.464844 24.601562 30.289062 C 24.542969 30.25 24.496094 30.28125 24.4375 30.289062 C 24.390625 30.296875 24.300781 30.292969 24.253906 30.3125 C 24.082031 30.394531 24.0625 30.746094 23.835938 30.847656 C 23.773438 30.875 23.675781 30.945312 23.601562 30.871094 C 23.511719 30.78125 23.652344 30.558594 23.695312 30.453125 C 23.761719 30.285156 23.796875 30.203125 23.859375 30.082031 C 23.625 30.105469 23.570312 30.398438 23.253906 30.40625 C 23.027344 30.414062 23.046875 30.273438 23.207031 30.128906 C 23.230469 30.105469 23.230469 30.082031 23.253906 30.058594 C 23.355469 29.945312 23.417969 29.886719 23.484375 29.824219 C 23.667969 29.660156 23.804688 29.480469 23.949219 29.382812 C 24.023438 29.335938 24.117188 29.3125 24.207031 29.269531 C 24.425781 29.15625 24.667969 29.007812 24.902344 28.875 C 25.214844 28.691406 25.589844 28.585938 25.949219 28.476562 C 26.320312 28.367188 26.683594 28.269531 27.042969 28.128906 C 27.378906 27.996094 27.707031 27.832031 28.039062 27.6875 C 28.386719 27.535156 28.722656 27.394531 29.039062 27.222656 C 29.8125 26.8125 30.507812 26.332031 31.503906 26.085938 C 31.816406 26.007812 32.035156 26.003906 32.199219 25.78125 C 32.234375 25.738281 32.308594 25.636719 32.316406 25.621094 C 32.355469 25.507812 32.320312 25.378906 32.363281 25.269531 C 32.410156 25.144531 32.554688 24.996094 32.664062 24.851562 C 32.964844 24.460938 33.300781 24.019531 33.570312 23.621094 C 33.773438 23.320312 33.910156 23.007812 34.082031 22.714844 C 34.171875 22.566406 34.265625 22.421875 34.359375 22.273438 C 34.800781 21.585938 35.535156 20.910156 36.636719 20.902344 C 36.699219 20.902344 36.957031 20.960938 37.011719 20.925781 C 37.097656 20.867188 37.023438 20.46875 36.964844 20.4375 C 36.945312 20.429688 36.59375 20.585938 36.546875 20.601562 C 36.148438 20.726562 35.726562 20.738281 35.59375 20.34375 C 35.558594 20.242188 35.582031 20.117188 35.546875 19.996094 C 35.527344 19.9375 35.492188 19.871094 35.453125 19.808594 C 35.421875 19.761719 35.359375 19.71875 35.335938 19.671875 C 35.308594 19.609375 35.339844 19.535156 35.3125 19.484375 C 35.269531 19.40625 35.175781 19.375 35.152344 19.324219 C 35.121094 19.257812 35.128906 19.160156 35.105469 19.089844 C 35.085938 19.03125 35.0625 18.933594 35.035156 18.902344 C 34.929688 18.796875 34.691406 18.859375 34.640625 18.648438 C 34.605469 18.507812 34.703125 18.355469 34.734375 18.207031 C 34.777344 17.984375 34.792969 17.769531 34.734375 17.578125 C 34.71875 17.53125 34.722656 17.464844 34.710938 17.441406 C 34.664062 17.347656 34.484375 17.253906 34.40625 17.136719 C 34.195312 16.816406 34.269531 16.414062 34.246094 15.976562 C 34.238281 15.84375 34.269531 15.691406 34.246094 15.605469 C 34.207031 15.476562 34.117188 15.492188 34.058594 15.394531 C 34 15.292969 33.964844 15.132812 33.988281 14.976562 C 34.007812 14.855469 34.121094 14.773438 34.152344 14.675781 C 34.175781 14.59375 34.136719 14.503906 34.152344 14.417969 C 34.183594 14.238281 34.3125 14.136719 34.40625 13.976562 " fill-opacity="1" fill-rule="evenodd"/></g><g clip-path="url(#245c6fab22)"><path fill="#ffffff" d="M 12.605469 59.855469 C 13.070312 60.257812 13.558594 60.5625 14.074219 60.773438 C 14.117188 60.820312 14.15625 60.855469 14.308594 61.003906 C 13.445312 60.832031 12.75 60.472656 11.875 59.460938 C 12.15625 59.671875 12.453125 59.816406 12.605469 59.855469 Z M 12.714844 58.679688 C 12.941406 58.679688 13.789062 58.519531 14.058594 58.460938 C 14.542969 58.898438 15.097656 59.214844 15.472656 59.421875 C 15.492188 59.667969 15.464844 60.25 15.433594 60.484375 C 15.074219 60.65625 14.308594 60.71875 14.082031 60.71875 C 13.96875 60.679688 13.214844 60.308594 12.671875 59.84375 C 12.652344 59.621094 12.675781 58.960938 12.714844 58.679688 Z M 10.988281 57.324219 C 11.03125 57.5 11.085938 57.640625 11.113281 57.6875 C 11.101562 57.816406 11.101562 57.960938 11.101562 58.019531 C 11.0625 57.867188 10.992188 57.5 10.988281 57.324219 Z M 11.546875 54.8125 C 11.734375 54.667969 11.890625 54.601562 12.039062 54.554688 C 11.898438 55.175781 12.035156 55.453125 12.136719 55.765625 C 11.902344 56.300781 11.773438 56.761719 11.695312 57.292969 C 11.527344 57.390625 11.300781 57.527344 11.140625 57.640625 C 10.929688 57.105469 10.898438 56.113281 11.546875 54.8125 Z M 13.859375 52.933594 C 13.714844 53.0625 13.507812 53.28125 13.394531 53.421875 C 12.933594 53.648438 12.414062 54.082031 12.089844 54.460938 C 11.933594 54.507812 11.84375 54.542969 11.613281 54.683594 C 12.121094 53.945312 12.722656 53.328125 13.859375 52.933594 Z M 16.253906 52.859375 C 16.4375 52.996094 16.578125 53.125 16.808594 53.351562 C 16.664062 53.410156 16.398438 53.585938 16.167969 53.863281 C 15.550781 53.777344 14.863281 53.8125 14.476562 53.945312 C 14.164062 53.636719 13.855469 53.46875 13.476562 53.40625 C 13.570312 53.289062 13.796875 53.015625 13.960938 52.898438 C 14.3125 52.78125 15.300781 52.570312 16.253906 52.859375 Z M 18.457031 54.238281 C 18.433594 54.234375 18.402344 54.234375 18.378906 54.234375 C 17.789062 53.570312 17.34375 53.394531 16.878906 53.328125 C 16.644531 53.070312 16.523438 53.003906 16.359375 52.882812 C 16.730469 52.964844 17.75 53.351562 18.457031 54.238281 Z M 19.355469 57.382812 C 19.3125 57.265625 19.230469 57.074219 19.046875 56.917969 C 18.929688 56.382812 18.660156 55.734375 18.445312 55.46875 C 18.496094 55.210938 18.457031 54.546875 18.402344 54.300781 C 18.433594 54.296875 18.480469 54.300781 18.515625 54.308594 C 19.066406 55.070312 19.515625 56.246094 19.355469 57.382812 Z M 16.96875 58.230469 C 16.886719 57.929688 16.691406 57.183594 16.460938 56.566406 C 16.660156 56.230469 17.003906 55.710938 17.148438 55.335938 C 17.417969 55.390625 17.953125 55.5 18.394531 55.511719 C 18.722656 56.050781 18.875 56.457031 18.980469 56.972656 C 18.804688 57.578125 18.574219 57.953125 18.214844 58.414062 C 18.023438 58.402344 17.527344 58.304688 16.96875 58.230469 Z M 13.6875 55.3125 C 13.777344 55.09375 14.242188 54.398438 14.515625 54 C 14.992188 53.84375 15.792969 53.890625 16.160156 53.941406 C 16.347656 54.234375 16.886719 54.988281 17.082031 55.28125 C 16.914062 55.683594 16.671875 56.085938 16.414062 56.523438 C 16.246094 56.515625 14.929688 56.628906 14.621094 56.636719 C 14.410156 56.355469 13.890625 55.636719 13.6875 55.3125 Z M 14.566406 56.691406 C 14.335938 57.199219 14.097656 58.101562 14.046875 58.371094 C 13.820312 58.433594 13.039062 58.570312 12.691406 58.625 C 12.355469 58.253906 11.886719 57.554688 11.765625 57.28125 C 11.789062 56.964844 12.011719 56.210938 12.222656 55.785156 C 12.546875 55.636719 13.265625 55.464844 13.640625 55.375 C 13.808594 55.640625 14.3125 56.371094 14.566406 56.691406 Z M 18.1875 59.679688 C 17.753906 60.078125 17.199219 60.40625 16.84375 60.601562 C 16.628906 60.621094 15.910156 60.582031 15.515625 60.476562 C 15.539062 60.28125 15.578125 59.75 15.570312 59.414062 C 15.984375 59.171875 16.710938 58.574219 16.96875 58.320312 C 17.25 58.382812 18.015625 58.472656 18.1875 58.488281 C 18.25 59.011719 18.195312 59.472656 18.1875 59.679688 Z M 16.695312 60.832031 C 16.726562 60.789062 16.792969 60.722656 16.84375 60.660156 C 17.542969 60.296875 18.140625 59.871094 18.765625 59.152344 C 18.152344 60.078125 17.398438 60.570312 16.695312 60.832031 Z M 18.382812 59.839844 C 19.996094 58.074219 19.871094 55.335938 18.109375 53.722656 C 16.34375 52.109375 13.605469 52.230469 11.992188 53.996094 C 10.378906 55.761719 10.5 58.496094 12.265625 60.109375 C 14.03125 61.726562 16.769531 61.601562 18.382812 59.839844 " fill-opacity="1" fill-rule="nonzero"/></g><g clip-path="url(#a19e286e86)"><path fill="#ffffff" d="M 34.585938 54.28125 L 33.355469 55.40625 L 33.355469 57.519531 L 34.46875 58.460938 L 33.355469 58.460938 L 33.355469 59.898438 L 34.558594 61.023438 L 36.726562 61.023438 L 37.949219 59.898438 L 37.949219 57.875 L 36.835938 56.84375 L 37.949219 56.84375 L 37.949219 55.40625 L 36.691406 54.28125 Z M 37.722656 56.617188 L 36.105469 56.617188 L 36.105469 56.035156 L 35.160156 56.035156 L 35.160156 56.84375 L 36.519531 56.84375 L 37.722656 57.984375 L 37.722656 59.785156 L 36.644531 60.796875 L 34.726562 60.796875 L 33.578125 59.78125 L 33.578125 58.683594 L 35.160156 58.683594 L 35.160156 59.359375 L 36.105469 59.359375 L 36.105469 58.460938 L 34.757812 58.460938 L 33.578125 57.398438 L 33.578125 55.511719 L 34.691406 54.503906 L 36.554688 54.503906 L 37.722656 55.511719 Z M 35.882812 56.257812 L 35.882812 56.617188 L 35.386719 56.617188 L 35.386719 56.257812 Z M 35.386719 59.136719 L 35.386719 58.6875 L 35.882812 58.6875 L 35.882812 59.136719 Z M 34.746094 54.675781 L 33.761719 55.609375 L 33.761719 57.316406 L 34.828125 58.289062 L 36.277344 58.289062 L 36.277344 59.539062 L 34.980469 59.539062 L 34.980469 58.863281 L 33.761719 58.863281 L 33.761719 59.699219 L 34.792969 60.625 L 36.480469 60.625 L 37.542969 59.699219 L 37.542969 58.082031 L 36.445312 57.011719 L 34.980469 57.011719 L 34.980469 55.863281 L 36.277344 55.863281 L 36.277344 56.445312 L 37.542969 56.445312 L 37.542969 55.601562 L 36.492188 54.675781 Z M 33.859375 56.058594 L 34.234375 56.273438 L 34.234375 56.984375 L 33.859375 57.210938 Z M 34.875 58.101562 L 34.8125 58.125 L 33.859375 57.273438 L 33.859375 57.25 L 34.253906 57.023438 L 34.875 57.386719 Z M 34.875 55.886719 L 34.253906 56.25 L 33.859375 56.023438 L 33.859375 55.65625 L 34.558594 55 L 34.875 55.171875 Z M 36.035156 58.191406 L 36.140625 58.121094 L 36.257812 58.191406 Z M 33.859375 58.964844 L 34.234375 58.964844 L 34.234375 59.199219 L 33.859375 59.410156 Z M 34.875 60.296875 L 34.695312 60.394531 L 33.863281 59.65625 L 33.863281 59.441406 L 34.257812 59.21875 L 34.878906 59.578125 L 34.878906 60.296875 Z M 35.304688 60.527344 L 34.894531 60.296875 L 34.894531 59.640625 L 36.132812 59.640625 L 36.132812 60.296875 L 35.738281 60.527344 Z M 36.441406 60.527344 L 35.789062 60.527344 L 36.140625 60.320312 L 36.464844 60.5 Z M 37.445312 59.65625 L 37.425781 59.664062 L 37.425781 59.574219 L 37.445312 59.566406 Z M 36.796875 58.480469 L 37.40625 58.121094 L 37.445312 58.140625 L 37.445312 59.53125 L 37.40625 59.550781 L 36.796875 59.199219 Z M 36.769531 59.199219 L 36.375 59.421875 L 36.375 58.253906 L 36.769531 58.476562 Z M 36.402344 57.121094 L 36.457031 57.167969 L 36.140625 57.347656 L 35.753906 57.121094 Z M 35.351562 57.121094 L 35.683594 57.121094 L 36.132812 57.382812 L 36.132812 58.101562 L 35.980469 58.191406 L 35.054688 58.191406 L 34.890625 58.101562 L 34.890625 57.382812 Z M 36.132812 55.753906 L 34.890625 55.753906 L 34.890625 55.171875 L 35.519531 54.820312 L 36.132812 55.171875 Z M 37.425781 55.636719 L 37.445312 55.65625 L 37.445312 55.902344 L 37.425781 55.890625 Z M 36.796875 56.273438 L 37.40625 55.914062 L 37.445312 55.933594 L 37.445312 56.347656 L 36.796875 56.347656 Z M 36.769531 56.347656 L 36.375 56.347656 L 36.375 56.054688 L 36.769531 56.277344 Z M 36.140625 55.152344 L 35.53125 54.792969 L 35.53125 54.785156 L 36.457031 54.785156 L 36.582031 54.902344 Z M 41.140625 56.078125 L 40.332031 56.078125 L 40.332031 59.234375 L 41.140625 59.234375 Z M 40.925781 59.007812 L 40.554688 59.007812 L 40.554688 56.304688 L 40.925781 56.304688 Z M 39.699219 54.28125 L 38.484375 55.496094 L 38.484375 59.8125 L 39.699219 61.027344 L 41.769531 61.027344 L 42.988281 59.8125 L 42.988281 55.496094 L 41.769531 54.28125 Z M 42.769531 59.691406 L 41.652344 60.796875 L 39.816406 60.796875 L 38.714844 59.691406 L 38.714844 55.601562 L 39.816406 54.503906 L 41.652344 54.503906 L 42.769531 55.601562 Z M 39.910156 54.675781 L 38.890625 55.699219 L 38.890625 59.609375 L 39.910156 60.625 L 41.570312 60.625 L 42.585938 59.609375 L 42.585938 55.699219 L 41.570312 54.675781 Z M 41.300781 55.609375 L 41.300781 55.796875 L 40.0625 55.796875 L 40.0625 55.609375 L 40.679688 55.257812 Z M 39.953125 54.785156 L 40.671875 54.785156 L 40.671875 55.226562 L 40.050781 55.585938 L 39.476562 55.261719 Z M 39.429688 56.714844 L 40.050781 56.367188 L 40.0625 56.367188 L 40.0625 57.785156 L 40.050781 57.785156 L 39.429688 57.433594 Z M 39.40625 59.628906 L 39.179688 59.757812 L 38.992188 59.566406 L 38.992188 58.679688 L 39.40625 58.910156 Z M 39.40625 57.433594 L 38.992188 57.667969 L 38.992188 56.484375 L 39.40625 56.714844 Z M 39.429688 59.628906 L 39.429688 58.910156 L 40.050781 58.5625 L 40.0625 58.5625 L 40.0625 59.507812 L 40.671875 59.507812 L 40.671875 59.632812 L 40.050781 59.992188 Z M 41.300781 60.527344 L 40.0625 60.527344 L 40.0625 60.015625 L 40.679688 59.65625 L 41.300781 60.015625 Z M 41.320312 59.40625 L 40.160156 59.40625 L 40.160156 55.90625 L 41.320312 55.90625 Z M 41.527344 60.527344 L 41.328125 60.527344 L 41.328125 60.015625 L 41.949219 59.65625 L 42.226562 59.828125 Z M 42.488281 59.566406 L 42.257812 59.800781 L 41.960938 59.628906 L 41.960938 58.910156 L 42.488281 58.617188 Z M 42.488281 58.578125 L 41.949219 58.890625 L 41.421875 58.585938 L 41.421875 57.757812 L 41.949219 57.464844 L 42.488281 57.769531 Z M 42.488281 57.734375 L 41.960938 57.4375 L 41.960938 56.714844 L 42.488281 56.421875 Z M 41.957031 55.214844 L 41.984375 55.242188 L 41.957031 55.222656 Z M 42.074219 55.332031 L 42.488281 55.746094 L 42.488281 56.375 L 41.949219 56.691406 L 41.417969 56.386719 L 41.417969 55.800781 L 41.328125 55.800781 L 41.328125 55.613281 L 41.949219 55.261719 Z M 44.746094 54.28125 L 43.523438 55.496094 L 43.523438 59.8125 L 44.746094 61.027344 L 46.816406 61.027344 L 48.03125 59.8125 L 48.03125 58.460938 L 45.960938 58.460938 L 45.960938 59.007812 L 45.601562 59.007812 L 45.601562 56.304688 L 45.960938 56.304688 L 45.960938 56.933594 L 48.03125 56.933594 L 48.03125 55.496094 L 46.8125 54.28125 Z M 47.804688 56.707031 L 46.183594 56.707031 L 46.183594 56.078125 L 45.375 56.078125 L 45.375 59.234375 L 46.183594 59.234375 L 46.183594 58.683594 L 47.800781 58.683594 L 47.800781 59.691406 L 46.707031 60.796875 L 44.859375 60.796875 L 43.753906 59.691406 L 43.753906 55.601562 L 44.859375 54.503906 L 46.707031 54.503906 L 47.804688 55.601562 Z M 44.941406 54.675781 L 43.929688 55.699219 L 43.929688 59.609375 L 44.945312 60.625 L 46.609375 60.625 L 47.625 59.609375 L 47.625 58.863281 L 46.359375 58.863281 L 46.359375 59.207031 L 46.34375 59.207031 L 46.34375 59.40625 L 45.195312 59.40625 L 45.195312 55.90625 L 46.355469 55.90625 L 46.355469 56.539062 L 47.621094 56.539062 L 47.621094 55.699219 L 46.605469 54.671875 L 44.941406 54.671875 Z M 44.988281 54.785156 L 45.011719 54.785156 L 45.058594 54.808594 L 45.058594 55.527344 L 44.4375 55.878906 L 44.085938 55.679688 Z M 44.027344 56.886719 L 44.4375 56.644531 L 45.058594 57.003906 L 45.058594 57.722656 L 44.4375 58.074219 L 44.027344 57.839844 Z M 45.070312 57.75 L 45.09375 57.757812 L 45.09375 59.171875 L 45.070312 59.179688 L 44.457031 58.832031 L 44.457031 58.113281 Z M 44.027344 59.566406 L 44.027344 59.089844 L 44.4375 58.855469 L 45.058594 59.207031 L 45.058594 59.925781 L 44.636719 60.179688 Z M 46.460938 58.964844 L 46.714844 58.964844 L 46.460938 59.117188 Z M 46.34375 59.503906 L 46.460938 59.503906 L 46.460938 59.152344 L 46.785156 58.964844 L 47.164062 58.964844 L 47.523438 59.171875 L 47.523438 59.566406 L 46.867188 60.222656 L 46.34375 59.929688 Z M 45.71875 60.3125 L 46.339844 59.949219 L 46.839844 60.246094 L 46.5625 60.527344 L 45.71875 60.527344 Z M 45.6875 60.3125 L 45.6875 60.527344 L 44.988281 60.527344 L 44.65625 60.195312 L 45.070312 59.949219 Z M 45.097656 55.800781 L 45.097656 56.96875 L 45.070312 56.988281 L 44.460938 56.628906 L 44.460938 55.90625 L 45.070312 55.546875 L 45.511719 55.800781 Z M 46.957031 56.4375 L 46.464844 56.4375 L 46.464844 55.800781 L 45.898438 55.800781 L 46.339844 55.546875 L 46.960938 55.90625 L 46.960938 56.4375 Z M 46.976562 55.882812 L 46.34375 55.53125 L 46.34375 54.808594 L 46.390625 54.785156 L 46.5625 54.785156 L 47.417969 55.628906 Z M 49.980469 54.675781 L 48.960938 55.699219 L 48.960938 59.609375 L 49.980469 60.625 L 51.640625 60.625 L 52.65625 59.609375 L 52.65625 58.863281 L 51.390625 58.863281 L 51.390625 59.207031 L 51.382812 59.207031 L 51.382812 59.40625 L 50.230469 59.40625 L 50.230469 55.90625 L 51.390625 55.90625 L 51.390625 56.539062 L 52.65625 56.539062 L 52.65625 55.699219 L 51.640625 54.671875 L 49.980469 54.671875 Z M 50.023438 54.785156 L 50.050781 54.785156 L 50.09375 54.808594 L 50.09375 55.527344 L 49.476562 55.878906 L 49.125 55.679688 Z M 49.058594 56.886719 L 49.472656 56.644531 L 50.09375 57.003906 L 50.09375 57.722656 L 49.472656 58.074219 L 49.058594 57.839844 Z M 50.101562 57.75 L 50.128906 57.757812 L 50.128906 59.171875 L 50.101562 59.179688 L 49.492188 58.832031 L 49.492188 58.113281 Z M 49.058594 59.566406 L 49.058594 59.089844 L 49.472656 58.855469 L 50.09375 59.207031 L 50.09375 59.925781 L 49.671875 60.179688 Z M 51.5 58.964844 L 51.75 58.964844 L 51.5 59.117188 Z M 51.382812 59.503906 L 51.5 59.503906 L 51.5 59.152344 L 51.824219 58.964844 L 52.199219 58.964844 L 52.558594 59.171875 L 52.558594 59.566406 L 51.90625 60.222656 L 51.382812 59.929688 Z M 50.75 60.3125 L 51.371094 59.949219 L 51.875 60.246094 L 51.597656 60.527344 L 50.75 60.527344 Z M 50.726562 60.3125 L 50.726562 60.527344 L 50.023438 60.527344 L 49.691406 60.195312 L 50.101562 59.949219 Z M 50.132812 55.800781 L 50.132812 56.96875 L 50.105469 56.988281 L 49.496094 56.628906 L 49.496094 55.90625 L 50.105469 55.546875 L 50.546875 55.800781 Z M 51.992188 56.4375 L 51.5 56.4375 L 51.5 55.800781 L 50.933594 55.800781 L 51.375 55.546875 L 51.996094 55.90625 L 51.996094 56.4375 Z M 52.007812 55.882812 L 51.378906 55.53125 L 51.378906 54.808594 L 51.425781 54.785156 L 51.597656 54.785156 L 52.449219 55.628906 Z M 49.78125 54.28125 L 48.558594 55.496094 L 48.558594 59.8125 L 49.78125 61.027344 L 51.847656 61.027344 L 53.0625 59.8125 L 53.0625 58.460938 L 50.996094 58.460938 L 50.996094 59.007812 L 50.632812 59.007812 L 50.632812 56.304688 L 50.996094 56.304688 L 50.996094 56.933594 L 53.0625 56.933594 L 53.0625 55.496094 L 51.847656 54.28125 Z M 52.835938 56.707031 L 51.21875 56.707031 L 51.21875 56.078125 L 50.410156 56.078125 L 50.410156 59.234375 L 51.21875 59.234375 L 51.21875 58.683594 L 52.835938 58.683594 L 52.835938 59.691406 L 51.738281 60.796875 L 49.894531 60.796875 L 48.785156 59.691406 L 48.785156 55.601562 L 49.894531 54.503906 L 51.738281 54.503906 L 52.835938 55.601562 Z M 53.59375 54.363281 L 53.59375 56.304688 L 54.042969 56.304688 L 54.042969 59.003906 L 53.59375 59.003906 L 53.59375 61.027344 L 58.589844 61.027344 L 58.589844 58.460938 L 57.375 58.460938 L 57.375 56.929688 L 58.589844 56.929688 L 58.589844 54.28125 L 53.59375 54.28125 Z M 53.816406 54.503906 L 58.355469 54.503906 L 58.355469 56.707031 L 56.695312 56.707031 L 56.695312 56.078125 L 55.886719 56.078125 L 55.886719 56.929688 L 57.152344 56.929688 L 57.152344 58.460938 L 55.886719 58.460938 L 55.886719 59.222656 L 56.695312 59.222656 L 56.695312 58.683594 L 58.355469 58.683594 L 58.355469 60.796875 L 53.816406 60.796875 L 53.816406 59.226562 L 54.273438 59.226562 L 54.273438 56.078125 L 53.816406 56.078125 Z M 56.542969 56.304688 L 56.542969 56.707031 L 56.039062 56.707031 L 56.039062 56.304688 Z M 56.542969 58.683594 L 56.542969 59 L 56.039062 59 L 56.039062 58.683594 Z M 54.449219 59.40625 L 54 59.40625 L 54 60.628906 L 58.1875 60.628906 L 58.1875 58.867188 L 56.921875 58.867188 L 56.921875 59.40625 L 55.671875 59.40625 L 55.671875 58.292969 L 56.972656 58.292969 L 56.972656 57.101562 L 55.671875 57.101562 L 55.671875 55.90625 L 56.921875 55.90625 L 56.921875 56.539062 L 58.1875 56.539062 L 58.1875 54.675781 L 54 54.675781 L 54 55.90625 L 54.449219 55.90625 Z M 58.085938 54.785156 L 58.085938 55.882812 L 57.914062 55.980469 L 57.296875 55.617188 L 57.296875 54.910156 L 57.507812 54.785156 Z M 57.449219 54.785156 L 57.285156 54.882812 L 57.113281 54.785156 Z M 57.015625 55.800781 L 57.285156 55.648438 L 57.894531 56.007812 L 57.894531 56.441406 L 57.015625 56.441406 Z M 54.101562 60.527344 L 54.09375 60.527344 L 54.09375 60.402344 L 54.101562 60.410156 Z M 54.742188 60.027344 L 54.121094 60.386719 L 54.097656 60.367188 L 54.097656 59.503906 L 54.542969 59.503906 L 54.542969 59.1875 L 54.742188 59.304688 Z M 54.742188 57.824219 L 54.542969 57.941406 L 54.542969 56.996094 L 54.742188 57.113281 Z M 57.945312 58.964844 L 58.085938 59.042969 L 58.085938 60.285156 L 57.914062 60.382812 L 57.296875 60.023438 L 57.296875 59.304688 L 57.890625 58.964844 Z M 57.015625 58.964844 L 57.835938 58.964844 L 57.285156 59.289062 L 57.015625 59.136719 Z M 56.664062 60.410156 L 57.285156 60.050781 L 57.894531 60.410156 L 57.894531 60.527344 L 56.664062 60.527344 Z M 56.640625 60.410156 L 56.640625 60.527344 L 55.398438 60.527344 L 55.398438 60.410156 L 56.019531 60.050781 Z M 56.875 58.082031 L 56.875 58.191406 L 56.695312 58.191406 Z M 56.605469 58.191406 L 55.570312 58.191406 L 55.570312 59.027344 L 55.398438 58.929688 L 55.398438 58.210938 L 56.019531 57.851562 Z M 55.75 55.800781 L 56.019531 55.648438 L 56.289062 55.800781 Z M 56.179688 54.785156 L 56.019531 54.882812 L 55.847656 54.785156 Z M 54.761719 54.910156 L 54.976562 54.785156 L 55.796875 54.785156 L 56.003906 54.910156 L 56.003906 55.621094 L 55.6875 55.800781 L 55.570312 55.800781 L 55.570312 55.871094 L 55.390625 55.980469 L 54.761719 55.617188 Z M 55.570312 55.90625 L 55.570312 56.816406 L 55.398438 56.71875 L 55.398438 56.003906 Z M 54.761719 57.113281 L 55.390625 56.753906 L 55.570312 56.859375 L 55.570312 57.210938 L 56.003906 57.210938 L 56.003906 57.820312 L 55.390625 58.179688 L 54.761719 57.820312 Z M 54.761719 59.304688 L 55.390625 58.945312 L 55.570312 59.050781 L 55.570312 59.5 L 56.003906 59.5 L 56.003906 60.023438 L 55.390625 60.382812 L 54.761719 60.023438 Z M 54.417969 55.800781 L 54.09375 55.800781 L 54.09375 54.785156 L 54.527344 54.785156 L 54.742188 54.910156 L 54.742188 55.621094 Z M 63.785156 58.011719 L 63.355469 57.589844 L 63.660156 57.285156 L 63.660156 55.648438 L 62.644531 54.65625 L 59.515625 54.65625 L 59.515625 55.988281 L 59.929688 55.988281 L 59.929688 59.425781 L 59.515625 59.425781 L 59.515625 60.636719 L 61.59375 60.636719 L 61.59375 59.421875 L 61.148438 59.421875 L 61.148438 58.207031 L 62.550781 58.207031 L 62.550781 59.421875 L 62.152344 59.421875 L 62.152344 60.636719 L 64.269531 60.636719 L 64.269531 59.421875 L 63.789062 59.421875 L 63.789062 58.011719 Z M 63.679688 58.058594 L 63.679688 58.890625 L 63.246094 58.640625 L 63.246094 57.921875 L 63.4375 57.8125 Z M 63.5625 55.691406 L 63.5625 56.617188 L 63.246094 56.425781 L 63.246094 55.71875 L 63.460938 55.59375 Z M 62.617188 54.773438 L 63.445312 55.574219 L 63.238281 55.691406 L 62.617188 55.328125 Z M 62.617188 56.824219 L 63.238281 56.464844 L 63.5625 56.652344 L 63.5625 57.234375 L 63.210938 57.585938 L 63.421875 57.792969 L 63.242188 57.890625 L 62.621094 57.542969 L 62.621094 56.824219 Z M 60.722656 55.71875 L 61.339844 55.359375 L 61.960938 55.71875 L 61.960938 55.882812 L 61.046875 55.882812 L 61.046875 56.617188 L 60.722656 56.429688 Z M 62.367188 55.988281 L 62.367188 57.203125 L 61.144531 57.203125 L 61.144531 55.988281 Z M 59.613281 54.753906 L 60.054688 54.753906 L 60.054688 55.328125 L 59.613281 55.589844 Z M 59.613281 59.53125 L 60.035156 59.53125 L 60.035156 59.003906 L 60.054688 59.023438 L 60.054688 59.738281 L 59.613281 59.992188 Z M 60.695312 60.539062 L 59.617188 60.539062 L 59.617188 60.035156 L 60.074219 59.765625 L 60.695312 60.125 Z M 60.695312 58.640625 L 60.074219 58.988281 L 60.039062 58.96875 L 60.039062 57.585938 L 60.074219 57.5625 L 60.695312 57.921875 Z M 60.039062 57.550781 L 60.039062 56.804688 L 60.058594 56.824219 L 60.058594 57.542969 Z M 60.695312 56.425781 L 60.074219 56.789062 L 60.039062 56.769531 L 60.039062 55.882812 L 59.617188 55.882812 L 59.617188 55.628906 L 60.074219 55.359375 L 60.695312 55.71875 Z M 61.351562 59.53125 L 61.496094 59.53125 L 61.496094 59.820312 L 61.351562 59.738281 Z M 61.339844 59.761719 L 61.496094 59.855469 L 61.496094 60.535156 L 60.722656 60.535156 L 60.722656 60.125 Z M 61.960938 58.101562 L 61.046875 58.101562 L 61.046875 58.816406 L 60.722656 58.640625 L 60.722656 57.921875 L 61.339844 57.5625 L 61.960938 57.921875 Z M 62.59375 59.738281 L 62.261719 59.925781 L 62.261719 59.53125 L 62.59375 59.53125 Z M 62.59375 57.542969 L 61.972656 57.894531 L 61.351562 57.542969 L 61.351562 57.3125 L 62.464844 57.3125 L 62.464844 56.753906 L 62.59375 56.824219 Z M 62.59375 55.332031 L 61.972656 55.695312 L 61.351562 55.332031 L 61.351562 54.753906 L 62.59375 54.753906 Z M 64.164062 59.933594 L 64.164062 60.539062 L 63.246094 60.539062 L 63.246094 60.125 L 63.867188 59.765625 Z M 63.859375 59.53125 L 63.859375 59.738281 L 63.238281 60.101562 L 62.617188 59.738281 L 62.617188 59.53125 L 62.644531 59.53125 L 62.644531 59.003906 L 63.238281 58.660156 L 63.679688 58.921875 L 63.679688 59.53125 Z M 62.230469 56.132812 L 61.304688 56.132812 L 61.304688 57.03125 L 62.230469 57.03125 Z M 62.023438 56.789062 L 61.511719 56.789062 L 61.511719 56.339844 L 62.023438 56.339844 Z M 64.230469 58.984375 L 64.230469 57.777344 L 63.960938 57.570312 L 64.085938 57.453125 L 64.085938 55.414062 L 62.90625 54.269531 L 59.128906 54.269531 L 59.128906 56.375 L 59.578125 56.375 L 59.578125 58.984375 L 59.128906 58.984375 L 59.128906 61.023438 L 64.652344 61.023438 L 64.652344 58.984375 Z M 64.441406 60.816406 L 62.007812 60.816406 L 62.007812 59.3125 L 62.429688 59.3125 L 62.429688 58.324219 C 61.378906 58.324219 61.285156 58.324219 61.285156 58.324219 L 61.285156 59.3125 L 61.769531 59.3125 L 61.769531 60.816406 L 59.335938 60.816406 L 59.335938 59.222656 L 59.78125 59.222656 L 59.78125 56.15625 L 59.335938 56.15625 L 59.335938 54.480469 L 62.761719 54.480469 L 63.839844 55.53125 L 63.839844 57.332031 L 63.59375 57.574219 L 63.980469 57.90625 L 63.980469 59.226562 L 64.441406 59.226562 Z M 61.503906 59.101562 L 61.503906 58.535156 L 62.222656 58.535156 L 62.222656 59.101562 Z M 61.503906 59.101562 " fill-opacity="1" fill-rule="nonzero"/></g><g clip-path="url(#a4e66c6772)"><path fill="#ffffff" d="M 10.640625 17.5 C 11.03125 15.835938 13.328125 15.78125 13.820312 16.621094 C 14.347656 17.523438 11.386719 17.296875 12.3125 19.199219 C 12.472656 19.53125 13.1875 19.660156 13.070312 19.003906 C 12.910156 18.0625 14.027344 17.816406 14.410156 18.359375 C 14.804688 18.914062 15.273438 20.429688 13.097656 20.816406 C 10.589844 21.261719 10.34375 18.765625 10.640625 17.5 Z M 10.640625 17.5 " fill-opacity="1" fill-rule="nonzero"/></g><path fill="#ffffff" d="M 16.808594 15.03125 C 17.710938 14.613281 19.683594 14.40625 20.351562 16.0625 C 21.6875 19.367188 16.824219 20.835938 15.976562 18.285156 C 15.296875 16.246094 16.226562 15.210938 16.808594 15.03125 Z M 17.8125 16.046875 C 18.261719 15.96875 19.167969 16.113281 19.269531 16.933594 C 19.46875 18.566406 17.125 18.640625 17.050781 17.402344 C 16.992188 16.410156 17.53125 16.058594 17.8125 16.046875 Z M 17.8125 16.046875 " fill-opacity="1" fill-rule="evenodd"/><path fill="#ffffff" d="M 24.933594 19.8125 C 25.988281 19.371094 25.773438 17.339844 25.5625 16.726562 C 25.542969 16.667969 25.519531 16.601562 25.496094 16.523438 C 25.308594 15.929688 24.96875 14.875 24.21875 14.65625 C 23.269531 14.386719 22.441406 15.78125 22.160156 16.253906 C 22.144531 16.277344 22.132812 16.296875 22.121094 16.316406 C 22.113281 16.332031 22.101562 16.347656 22.09375 16.363281 C 21.792969 16.855469 20.78125 18.519531 22.335938 19.480469 C 22.984375 19.878906 23.675781 18.746094 23.675781 18.746094 C 23.675781 18.746094 24.402344 20.039062 24.933594 19.8125 Z M 24.269531 18.035156 C 24.695312 17.855469 24.609375 17.042969 24.523438 16.796875 C 24.515625 16.773438 24.507812 16.746094 24.496094 16.714844 C 24.421875 16.476562 24.285156 16.050781 23.984375 15.964844 C 23.605469 15.855469 23.273438 16.414062 23.160156 16.605469 C 23.15625 16.613281 23.148438 16.625 23.144531 16.628906 C 23.140625 16.636719 23.136719 16.644531 23.132812 16.648438 C 23.015625 16.847656 22.609375 17.515625 23.230469 17.898438 C 23.492188 18.058594 24.269531 18.035156 24.269531 18.035156 Z M 24.269531 18.035156 " fill-opacity="1" fill-rule="evenodd"/><g clip-path="url(#d574831d2e)"><path fill="#ffffff" d="M 28.523438 14.839844 C 28.359375 14.339844 27.539062 14.261719 27.378906 15.070312 C 27.105469 16.429688 27.082031 18.566406 27.839844 19.117188 C 28.503906 19.601562 30.035156 19.648438 30.199219 18.578125 C 30.269531 18.125 29.695312 17.949219 29.152344 17.882812 C 28.96875 17.859375 28.832031 17.699219 28.839844 17.515625 C 28.878906 16.527344 28.699219 15.363281 28.523438 14.839844 Z M 28.523438 14.839844 " fill-opacity="1" fill-rule="nonzero"/></g><path fill="#ffffff" d="M 14.625 14.886719 L 11.875 13.09375 C 11.835938 13.066406 11.855469 13.019531 11.921875 12.988281 L 12.300781 12.816406 C 12.367188 12.785156 12.449219 12.785156 12.480469 12.816406 Z M 14.625 14.886719 " fill-opacity="1" fill-rule="nonzero"/><path fill="#ffffff" d="M 18.691406 13.609375 L 17.648438 11.058594 C 17.632812 11.019531 17.671875 11 17.734375 11.015625 L 18.101562 11.097656 C 18.164062 11.113281 18.222656 11.15625 18.230469 11.191406 Z M 18.691406 13.609375 " fill-opacity="1" fill-rule="nonzero"/><path fill="#ffffff" d="M 22.570312 13.308594 L 23.835938 11.351562 C 23.855469 11.324219 23.816406 11.308594 23.753906 11.320312 L 23.386719 11.394531 C 23.320312 11.40625 23.257812 11.441406 23.246094 11.46875 Z M 22.570312 13.308594 " fill-opacity="1" fill-rule="nonzero"/><g clip-path="url(#5fde9ab4de)"><path fill="#ffffff" d="M 20.863281 21.332031 L 20.875 24.042969 C 20.875 24.082031 20.921875 24.085938 20.972656 24.046875 L 21.273438 23.824219 C 21.328125 23.789062 21.367188 23.722656 21.359375 23.6875 Z M 20.863281 21.332031 " fill-opacity="1" fill-rule="nonzero"/></g><path fill="#ffffff" d="M 26.300781 14.171875 L 28.179688 13.175781 C 28.210938 13.160156 28.199219 13.128906 28.160156 13.105469 L 27.929688 12.976562 C 27.886719 12.953125 27.835938 12.949219 27.8125 12.96875 Z M 26.300781 14.171875 " fill-opacity="1" fill-rule="nonzero"/><g clip-path="url(#32a939aa3e)"><path fill="#ffffff" d="M 16.859375 21.476562 L 15.203125 23.445312 C 15.179688 23.476562 15.117188 23.472656 15.074219 23.441406 L 14.816406 23.253906 C 14.769531 23.21875 14.757812 23.171875 14.789062 23.144531 Z M 16.859375 21.476562 " fill-opacity="1" fill-rule="nonzero"/></g><path fill="#ffffff" d="M 25.109375 21.261719 L 27.355469 22.75 C 27.386719 22.773438 27.441406 22.765625 27.472656 22.734375 L 27.640625 22.550781 C 27.671875 22.519531 27.664062 22.476562 27.625 22.460938 Z M 25.109375 21.261719 " fill-opacity="1" fill-rule="nonzero"/></svg>